#N canvas 421 90 706 412 10;
#X declare -lib mrpeach;
#X obj 381 11 import mrpeach;
#X obj 18 215 slipdec;
#N canvas 166 87 532 429 spongeDecode 0;
#X obj 34 106 unpack f f f f f f f f f f f f f f f f;
#X obj 34 129 << 8;
#X obj 34 150 |;
#X floatatom 34 173 5 0 0 0 - - -;
#X obj 64 150 |;
#X floatatom 64 173 5 0 0 0 - - -;
#X obj 64 129 << 8;
#X obj 94 129 << 8;
#X obj 94 150 |;
#X floatatom 94 173 5 0 0 0 - - -;
#X obj 124 150 |;
#X floatatom 124 173 5 0 0 0 - - -;
#X obj 124 129 << 8;
#X obj 154 129 << 8;
#X obj 154 150 |;
#X floatatom 154 173 5 0 0 0 - - -;
#X obj 184 150 |;
#X floatatom 184 173 5 0 0 0 - - -;
#X obj 184 129 << 8;
#X obj 214 129 << 8;
#X obj 214 150 |;
#X floatatom 214 173 5 0 0 0 - - -;
#X obj 244 150 |;
#X floatatom 244 173 5 0 0 0 - - -;
#X obj 244 129 << 8;
#X obj 34 80 inlet;
#X obj 34 360 outlet;
#X msg 34 335 send /sponge/acc1x \$1;
#X msg 64 315 send /sponge/acc1y \$1;
#X msg 94 295 send /sponge/acc1z \$1;
#X msg 124 275 send /sponge/acc2x \$1;
#X msg 154 255 send /sponge/acc2y \$1;
#X msg 184 235 send /sponge/acc2z \$1;
#X msg 214 215 send /sponge/fsr1 \$1;
#X msg 244 195 send /sponge/fsr2 \$1;
#X connect 0 0 1 0;
#X connect 0 1 2 1;
#X connect 0 2 6 0;
#X connect 0 3 4 1;
#X connect 0 4 7 0;
#X connect 0 5 8 1;
#X connect 0 6 12 0;
#X connect 0 7 10 1;
#X connect 0 8 13 0;
#X connect 0 9 14 1;
#X connect 0 10 18 0;
#X connect 0 11 16 1;
#X connect 0 12 19 0;
#X connect 0 13 20 1;
#X connect 0 14 24 0;
#X connect 0 15 22 1;
#X connect 1 0 2 0;
#X connect 2 0 3 0;
#X connect 3 0 27 0;
#X connect 4 0 5 0;
#X connect 5 0 28 0;
#X connect 6 0 4 0;
#X connect 7 0 8 0;
#X connect 8 0 9 0;
#X connect 9 0 29 0;
#X connect 10 0 11 0;
#X connect 11 0 30 0;
#X connect 12 0 10 0;
#X connect 13 0 14 0;
#X connect 14 0 15 0;
#X connect 15 0 31 0;
#X connect 16 0 17 0;
#X connect 17 0 32 0;
#X connect 18 0 16 0;
#X connect 19 0 20 0;
#X connect 20 0 21 0;
#X connect 21 0 33 0;
#X connect 22 0 23 0;
#X connect 23 0 34 0;
#X connect 24 0 22 0;
#X connect 25 0 0 0;
#X connect 27 0 26 0;
#X connect 28 0 26 0;
#X connect 29 0 26 0;
#X connect 30 0 26 0;
#X connect 31 0 26 0;
#X connect 32 0 26 0;
#X connect 33 0 26 0;
#X connect 34 0 26 0;
#X restore 18 237 pd spongeDecode;
#X obj 2 267 sendOSC;
#X msg 23 91 devices;
#X msg 32 122 devicename /dev/tty.usbserial-A900UDRW;
#X obj 18 183 comport;
#X msg 11 65 baud 19200;
#X msg -4 38 connect localhost 9000;
#X text 141 37 Choose an address and a port for OSC messages;
#X text 86 63 Set baud rate (your sponge runs at 19200).;
#X text 86 90 List serial ports in console;
#X text 285 124 Modify this message box and open the serial port.;
#X text 129 237 Look inside this patcher to see OSC messages paths
;
#X connect 1 0 2 0;
#X connect 2 0 3 0;
#X connect 4 0 6 0;
#X connect 5 0 6 0;
#X connect 6 0 1 0;
#X connect 7 0 6 0;
#X connect 8 0 3 0;
